<svg width="254" height="30" viewBox="0 0 254 30" fill="none" xmlns="http://www.w3.org/2000/svg">
<path d="M0.597656 15.25C0.597656 10.6667 2.40755 7.11849 6.02734 4.60547C10.3633 1.58464 16.431 0.0742188 24.2305 0.0742188C25.5846 0.0742188 26.8411 0.139323 28 0.269531V9.52734C26.2943 9.29297 24.4453 9.17578 22.4531 9.17578C20.474 9.17578 18.8398 9.65104 17.5508 10.6016C16.2747 11.5521 15.6367 13.0625 15.6367 15.1328C15.6367 19.5078 17.974 21.6953 22.6484 21.6953C23.8333 21.6953 25.6172 21.4674 28 21.0117V29.5859C26.2292 29.7812 24.4193 29.8789 22.5703 29.8789C13 29.8789 6.45703 27.5872 2.94141 23.0039C1.37891 20.9727 0.597656 18.388 0.597656 15.25ZM56.0664 25.2305C55.2461 26.5586 54.0482 27.6393 52.4727 28.4727C50.8971 29.306 49.1589 29.7227 47.2578 29.7227C45.3568 29.7227 43.6966 29.5208 42.2773 29.1172C40.8581 28.7266 39.543 28.1406 38.332 27.3594C37.1341 26.5781 36.1706 25.5234 35.4414 24.1953C34.7122 22.8672 34.3477 21.3242 34.3477 19.5664C34.3477 17.7956 34.6732 16.168 35.3242 14.6836C35.9883 13.1862 36.8802 11.9688 38 11.0312C40.2917 9.07812 43.0846 8.10156 46.3789 8.10156C48.6576 8.10156 50.5195 8.38802 51.9648 8.96094C53.4102 9.53385 54.6862 10.5625 55.793 12.0469L55.832 7.88672L64.6602 8.62891L64.6016 28.5312L57.2578 29.0781L56.0664 25.2305ZM46.9258 16.1484C46.1706 17.0208 45.793 18.069 45.793 19.293C45.793 20.5039 46.1641 21.5586 46.9062 22.457C47.6484 23.3424 48.7096 23.7852 50.0898 23.7852C51.4701 23.7852 52.5378 23.3945 53.293 22.6133C54.0612 21.819 54.4453 20.7318 54.4453 19.3516C54.4453 17.9714 54.0612 16.8711 53.293 16.0508C52.5247 15.2305 51.457 14.8203 50.0898 14.8203C48.7357 14.8203 47.681 15.263 46.9258 16.1484ZM71.1445 0.914062L82.6875 0.367188C82.4792 4.71615 82.2643 9.99609 82.043 16.207C81.8346 22.4049 81.6849 26.6758 81.5938 29.0195L70.1875 29.332L70.7734 10.875C71.0208 4.97656 71.1445 1.65625 71.1445 0.914062ZM116.438 28.5703C114.784 29.0391 113 29.3711 111.086 29.5664C109.172 29.7747 106.971 29.8789 104.484 29.8789C101.997 29.8789 99.276 29.651 96.3203 29.1953C93.3646 28.7526 90.5846 28.1016 87.9805 27.2422C88.0326 27.0208 88.6641 24.5794 89.875 19.918C89.875 19.8268 89.9271 19.7812 90.0312 19.7812C92.375 20.3672 94.1719 20.7969 95.4219 21.0703C98.7422 21.7995 102.29 22.1641 106.066 22.1641C108.137 22.1641 109.172 21.806 109.172 21.0898C109.172 20.7643 109.068 20.5365 108.859 20.4062C108.651 20.263 108.286 20.1523 107.766 20.0742C107.245 19.9961 106.405 19.8724 105.246 19.7031C104.087 19.5208 103.202 19.3776 102.59 19.2734C101.978 19.1693 101.118 19.0195 100.012 18.8242C98.9049 18.6289 98.0586 18.4531 97.4727 18.2969C96.8997 18.1406 96.1576 17.9388 95.2461 17.6914C94.3477 17.431 93.651 17.1706 93.1562 16.9102C92.6615 16.6497 92.0885 16.3372 91.4375 15.9727C90.7865 15.6081 90.2917 15.2174 89.9531 14.8008C89.5885 14.3841 89.237 13.9154 88.8984 13.3945C88.2734 12.444 87.9609 11.2786 87.9609 9.89844C87.9609 6.30469 89.6146 3.77214 92.9219 2.30078C96.2292 0.816406 101.138 0.0742188 107.648 0.0742188C110.331 0.0742188 113.065 0.354167 115.852 0.914062C118.651 1.47396 120.702 2.07292 122.004 2.71094C121.275 5.47135 120.63 7.69792 120.07 9.39062C118.521 8.96094 116.281 8.53776 113.352 8.12109C110.422 7.69141 107.818 7.47656 105.539 7.47656C103.273 7.47656 102.141 7.84115 102.141 8.57031C102.141 8.98698 102.427 9.29948 103 9.50781C103.586 9.70312 104.973 9.98307 107.16 10.3477C109.361 10.6992 110.839 10.9401 111.594 11.0703C117.219 12.0339 120.826 13.4531 122.414 15.3281C123.586 16.7214 124.172 18.2188 124.172 19.8203C124.185 21.4219 123.872 22.7891 123.234 23.9219C122.609 25.0547 121.737 25.9922 120.617 26.7344C119.497 27.4766 118.104 28.0885 116.438 28.5703ZM139.406 0.289062L141.672 0.152344C141.815 0.582031 141.887 1.1875 141.887 1.96875C141.887 2.75 141.757 5.66667 141.496 10.7188C144.986 8.97396 148.326 8.10156 151.516 8.10156C154.706 8.10156 157.297 8.95443 159.289 10.6602C161.294 12.3529 162.297 14.5143 162.297 17.1445L161.945 28.9805L150.168 29.0781L150.578 18.8242C150.578 16.3893 149.139 15.1719 146.262 15.1719C144.191 15.1719 142.818 16.0573 142.141 17.8281C141.594 19.2604 141.32 21.3763 141.32 24.1758V28.7852C140.578 28.8893 139.868 28.9544 139.191 28.9805L129.543 29.0195C129.491 28.4466 129.465 27.8151 129.465 27.125L130.383 1.07031C131.49 1.01823 134.497 0.757812 139.406 0.289062ZM188.684 25.2305C187.863 26.5586 186.665 27.6393 185.09 28.4727C183.514 29.306 181.776 29.7227 179.875 29.7227C177.974 29.7227 176.314 29.5208 174.895 29.1172C173.475 28.7266 172.16 28.1406 170.949 27.3594C169.751 26.5781 168.788 25.5234 168.059 24.1953C167.329 22.8672 166.965 21.3242 166.965 19.5664C166.965 17.7956 167.29 16.168 167.941 14.6836C168.605 13.1862 169.497 11.9688 170.617 11.0312C172.909 9.07812 175.702 8.10156 178.996 8.10156C181.275 8.10156 183.137 8.38802 184.582 8.96094C186.027 9.53385 187.303 10.5625 188.41 12.0469L188.449 7.88672L197.277 8.62891L197.219 28.5312L189.875 29.0781L188.684 25.2305ZM179.543 16.1484C178.788 17.0208 178.41 18.069 178.41 19.293C178.41 20.5039 178.781 21.5586 179.523 22.457C180.266 23.3424 181.327 23.7852 182.707 23.7852C184.087 23.7852 185.155 23.3945 185.91 22.6133C186.678 21.819 187.062 20.7318 187.062 19.3516C187.062 17.9714 186.678 16.8711 185.91 16.0508C185.142 15.2305 184.074 14.8203 182.707 14.8203C181.353 14.8203 180.298 15.263 179.543 16.1484ZM204.816 29.1758L202.883 29.2148C202.805 28.6159 202.766 28.1797 202.766 27.9062C202.766 27.9062 203.007 22.0273 203.488 10.2695L208.898 9.11719L211.164 13.043C213.638 9.85286 216.118 8.25781 218.605 8.25781C219.634 8.25781 220.695 8.46615 221.789 8.88281C222.896 9.29948 223.625 9.74219 223.977 10.2109L221.926 15.875C220.48 15.276 219.068 14.9766 217.688 14.9766C216.307 14.9766 215.174 15.3672 214.289 16.1484C214.237 16.2005 214.185 16.2396 214.133 16.2656L214.094 16.3242L213.273 28.7656L204.816 29.1758ZM245.109 16.7734C245.096 15.5495 244.81 14.6836 244.25 14.1758C243.703 13.668 242.896 13.4141 241.828 13.4141C240.773 13.4141 239.921 13.7331 239.27 14.3711C238.618 14.9961 238.215 15.7839 238.059 16.7344L245.109 16.7734ZM252.766 27.3984C251.958 28.0104 250.52 28.5443 248.449 29C246.379 29.4688 244.367 29.7031 242.414 29.7031C240.474 29.7031 238.827 29.612 237.473 29.4297C236.118 29.2474 234.777 28.9219 233.449 28.4531C232.121 27.9714 230.982 27.3659 230.031 26.6367C229.094 25.8945 228.332 24.9375 227.746 23.7656C227.16 22.5807 226.867 21.168 226.867 19.5273C226.867 17.8737 227.167 16.3568 227.766 14.9766C228.365 13.5964 229.139 12.4831 230.09 11.6367C232.733 9.27995 236.561 8.10156 241.574 8.10156C243.957 8.10156 246.223 8.55729 248.371 9.46875C250.52 10.4062 252.049 11.8125 252.961 13.6875C253.482 14.7422 253.742 15.9076 253.742 17.1836L253.508 20.4062L237.668 20.3281C237.98 21.513 238.736 22.444 239.934 23.1211C241.145 23.7982 242.792 24.1367 244.875 24.1367C246.958 24.1367 249.361 23.5703 252.082 22.4375H253.137L252.766 27.3984Z" fill="#FFCF86"/>
</svg>
